<svg width="71" height="32" viewBox="0 0 71 32" fill="none" xmlns="http://www.w3.org/2000/svg">
<path d="M22.827 24.571C22.8364 24.3644 22.9678 24.1953 22.9537 23.9934C22.8176 23.6272 22.6861 23.1342 22.3574 22.8947C21.902 22.7726 21.6015 22.3688 21.3432 21.9932C21.2446 21.8429 21.254 21.6504 21.1836 21.5049C20.9723 21.2326 20.5872 21.0541 20.282 20.8757C20.0895 20.763 19.8877 20.8945 19.6858 20.8945C19.5167 20.8992 19.3618 20.8475 19.1974 20.7959C19.0378 20.7489 18.8593 20.7114 18.7044 20.6222C18.5213 20.5282 18.4227 20.3404 18.2349 20.2653C17.8968 20.2137 17.4883 20.2137 17.1362 20.2653C16.8967 20.3686 16.7417 20.6597 16.4506 20.7161L16.3896 20.7348C16.1736 20.7865 15.8543 20.9274 15.596 20.8898C15.4505 20.8757 15.3096 20.8006 15.1735 20.8475C14.8448 20.9931 14.502 21.2091 14.2344 21.4438C14.1029 21.5941 14.1452 21.8242 14.0325 22.0026C13.854 22.2796 13.6475 22.5191 13.4033 22.7304C13.2437 22.8572 13.0324 22.8665 12.8868 23.0074C12.5346 23.6507 12.2999 23.9136 12.5393 24.5006C12.5628 24.9748 12.5112 25.5335 12.1872 25.8998C12.0557 26.205 12.1825 26.5665 12.2201 26.8858C12.2388 27.1535 12.375 27.2943 12.5863 27.4352C12.8493 27.7122 12.9854 28.0784 13.1028 28.44C13.1544 28.6419 13.0746 28.8391 13.1404 29.0316C13.3517 29.3368 13.624 29.703 13.9386 29.8956C14.2438 29.9284 14.5724 29.9848 14.8213 30.1961C14.9622 30.29 15.1218 30.3745 15.2486 30.506C15.4552 30.7314 15.4927 31.0319 15.8496 31.0835C16.1078 31.168 16.3849 31.2572 16.6525 31.2854C16.8779 31.276 17.0469 31.0694 17.2911 31.06C17.5024 31.0366 17.6573 31.0553 17.8264 31.0459C18.3006 30.9802 18.526 31.4075 18.9908 31.2338C19.2631 31.1633 19.5449 31.0929 19.7843 30.9708C19.9675 30.844 19.9956 30.5717 20.1975 30.4308C20.3619 30.2947 20.5356 30.2055 20.7046 30.0881C20.9864 29.8392 21.409 30.027 21.6531 29.7218C21.686 29.689 21.7517 29.6232 21.7799 29.5904C21.9536 29.3838 22.1837 29.1725 22.2635 28.9377C22.2541 28.6278 22.2588 28.2897 22.4325 28.0127C22.5358 27.6793 22.7847 27.4023 23.0476 27.2051C23.1509 27.0455 23.1603 26.8013 23.2026 26.5994C23.2261 26.4163 23.2589 26.2238 23.2448 26.0453C23.2167 25.8481 23.0195 25.7307 22.9584 25.5288C22.8645 25.2142 22.8223 24.9044 22.8223 24.5804L22.827 24.571Z" fill="#999999"/>
<path d="M65.1231 24.571C65.1325 24.3644 65.264 24.1953 65.2499 23.9934C65.1137 23.6272 64.9822 23.1342 64.6535 22.8947C64.1981 22.7726 63.8976 22.3688 63.6394 21.9932C63.5408 21.8429 63.5501 21.6504 63.4797 21.5049C63.2684 21.2326 62.8834 21.0541 62.5782 20.8757C62.3857 20.763 62.1838 20.8945 61.9819 20.8945C61.8128 20.8992 61.6579 20.8475 61.4936 20.7959C61.3339 20.7489 61.1555 20.7114 61.0005 20.6222C60.8174 20.5282 60.7188 20.3404 60.531 20.2653C60.1882 20.2137 59.7844 20.2137 59.4323 20.2653C59.1928 20.3686 59.0379 20.6597 58.7468 20.7161L58.6857 20.7348C58.4697 20.7865 58.1504 20.9274 57.8922 20.8898C57.7466 20.8757 57.6058 20.8006 57.4696 20.8475C57.1409 20.9931 56.7982 21.2091 56.5305 21.4438C56.399 21.5941 56.4413 21.8242 56.3286 22.0026C56.1502 22.2796 55.9436 22.5191 55.6994 22.7304C55.5398 22.8572 55.3285 22.8665 55.1829 23.0074C54.8308 23.6507 54.596 23.9136 54.8355 24.5006C54.859 24.9748 54.8073 25.5335 54.4833 25.8998C54.3519 26.205 54.4786 26.5665 54.5162 26.8858C54.535 27.1535 54.6711 27.2943 54.8824 27.4352C55.1454 27.7122 55.2816 28.0784 55.3989 28.44C55.4506 28.6419 55.3707 28.8391 55.4365 29.0316C55.6478 29.3368 55.9201 29.703 56.2347 29.8956C56.5399 29.9284 56.8686 29.9848 57.1174 30.1961C57.2583 30.29 57.418 30.3745 57.5447 30.506C57.7513 30.7314 57.7889 31.0319 58.1457 31.0835C58.404 31.168 58.681 31.2572 58.9487 31.2854C59.174 31.276 59.3431 31.0694 59.5872 31.06C59.7985 31.0366 59.9535 31.0553 60.1225 31.0459C60.5967 30.9802 60.8221 31.4075 61.287 31.2338C61.5593 31.1633 61.841 31.0929 62.0805 30.9708C62.2636 30.844 62.2918 30.5717 62.4937 30.4308C62.658 30.2947 62.8318 30.2055 63.0008 30.0881C63.2825 29.8392 63.7051 30.027 63.9492 29.7218C63.9821 29.689 64.0478 29.6232 64.076 29.5904C64.2498 29.3838 64.4798 29.1725 64.5597 28.9377C64.5503 28.6278 64.555 28.2897 64.7287 28.0127C64.832 27.6793 65.0808 27.4023 65.3438 27.2051C65.4471 27.0455 65.4565 26.8013 65.4987 26.5994C65.5222 26.4163 65.5551 26.2238 65.541 26.0453C65.5128 25.8481 65.3156 25.7307 65.2546 25.5288C65.1607 25.2142 65.1184 24.9044 65.1184 24.5804L65.1231 24.571Z" fill="#999999"/>
<path d="M70.4899 22.552L70.2974 20.857L70.2176 20.1527C69.7246 15.6779 68.0858 15.1521 68.0858 15.1521L63.9492 13.2551C62.4373 12.5649 61.0334 11.6681 59.7703 10.5928L50.4969 2.72334C49.8302 2.15989 49.0178 1.80303 48.1633 1.68565H49.1963C49.5672 1.68565 49.8677 1.38514 49.8677 1.01421V0.699624C49.8677 0.328688 49.5672 0.0281712 49.1963 0.0281712H20.8596C20.4886 0.0281712 20.1881 0.328688 20.1881 0.699624V1.01421C20.1881 1.29593 20.3665 1.5401 20.6201 1.6387H19.4509V0.685538C19.4509 0.309907 19.1457 0 18.7654 0H9.10697C8.73134 0 8.42146 0.305211 8.42146 0.685538V1.6387H5.26614C4.72147 1.6387 4.1768 1.98147 3.90916 2.48857H2.8574C2.96069 2.21624 3.07339 1.95329 3.21425 1.70443C3.86691 0.577536 5.83427 0.924994 6.933 0.924994C7.50114 0.924994 7.50114 0.0422569 6.933 0.0422569C5.77323 0.0422569 4.35994 -0.150254 3.28469 0.394412C2.18127 0.957859 1.78215 2.70925 1.59433 3.83145C1.24218 5.95846 1.11542 8.14182 0.965165 10.2876C0.749177 13.3115 0.603596 16.34 0.500297 19.3685C0.481515 19.9367 1.35956 19.9367 1.38303 19.3685C1.39712 18.9412 1.41592 18.5186 1.43001 18.0914H3.10157C3.12504 18.4717 3.15321 18.8614 3.18138 19.2558C2.87148 19.453 2.6649 19.8005 2.6649 20.1949V23.092C2.6649 23.7071 3.16731 24.2095 3.7824 24.2095H3.96083L10.5672 24.8152C11.0368 21.2936 14.0465 18.5703 17.6995 18.5703C21.531 18.5703 24.6534 21.566 24.8788 25.3364H52.807C53.0324 21.5613 56.1548 18.5703 59.9863 18.5703C63.5501 18.5703 66.4988 21.1575 67.0764 24.5522C68.0436 24.4114 69.1987 24.2423 69.1987 24.2423C70.011 24.1203 70.5838 23.3737 70.4899 22.5567V22.552ZM3.04992 17.2086H1.46288C1.60843 13.6214 1.81034 10.0341 2.16719 6.46087C2.21414 5.96785 2.27047 5.47483 2.32681 4.98651C2.3456 4.82687 2.36437 4.66723 2.38316 4.51228C2.40194 4.35734 2.41603 4.25873 2.41603 4.24464C2.45829 3.95353 2.51932 3.65772 2.58975 3.36661H3.68379C3.45841 4.74705 2.70714 10.0341 3.05459 17.2133L3.04992 17.2086ZM24.151 12.0906C24.1276 12.3019 23.9538 12.4616 23.7425 12.4616H6.89075C6.77337 12.4616 6.66067 12.4099 6.58554 12.3254C6.50572 12.2362 6.46817 12.1235 6.48226 12.0061L7.22881 6.33879C7.25229 6.12749 7.42601 5.96786 7.63731 5.96786H24.4891C24.6065 5.96786 24.7192 6.0148 24.7943 6.10402C24.8741 6.18853 24.9117 6.30593 24.8976 6.42332L24.1557 12.0906H24.151ZM40.7352 11.2314C40.7352 11.4521 40.552 11.6352 40.3314 11.6352H30.7715C30.5509 11.6352 30.3677 11.4521 30.3677 11.2314V6.09933C30.3677 5.87865 30.5509 5.69552 30.7715 5.69552H40.3314C40.552 5.69552 40.7352 5.87865 40.7352 6.09933V11.2314ZM48.8301 16.9551H47.5529C47.1444 16.9551 46.811 16.6874 46.811 16.3588C46.811 16.0301 47.1444 15.7625 47.5529 15.7625H48.8301C49.2385 15.7625 49.5719 16.0301 49.5719 16.3588C49.5719 16.6874 49.2385 16.9551 48.8301 16.9551ZM59.4886 13.5979C59.4275 13.7575 59.2726 13.8655 59.1036 13.8655H47.2289C47.0035 13.8655 46.8157 13.6824 46.8157 13.4523V6.37636C46.8157 6.15098 46.9988 5.96316 47.2289 5.96316H49.9194C50.5626 5.96316 51.1871 6.19324 51.6801 6.61113L59.3712 13.1377C59.5027 13.2504 59.5496 13.4335 59.4933 13.5932L59.4886 13.5979Z" fill="#999999"/>
</svg>
