<svg width="67" height="30" viewBox="0 0 67 30" fill="none" xmlns="http://www.w3.org/2000/svg">
<path d="M65.2992 17.9198L59.494 15.1026L53.7394 9.78644L53.1185 9.20438H53.5143H56.3276C57.2628 9.20438 58.0932 8.59516 58.3687 7.69878C58.6481 6.8024 58.3105 5.83229 57.5383 5.30455L52.4705 1.82768C50.798 0.679078 48.819 0.0659725 46.7895 0.0659725H42.8004C39.7854 0.0659725 36.7897 0.485058 33.891 1.30771H24.8573V0.566545C24.8573 0.256111 24.6051 0 24.2908 0H16.3088C15.9983 0 15.7422 0.25223 15.7422 0.566545V1.30771H1.26433C0.565858 1.30771 -0.000685174 1.87425 -0.000685174 2.57273V20.9349C-0.000685174 20.9349 -0.0162069 22.1107 0.515412 23.2399C0.515412 23.2399 0.717194 23.6629 1.95117 23.8646C1.95117 23.8646 8.80401 25.0094 14.1318 25.6768C14.2482 22.9217 16.5222 20.7137 19.3044 20.7137C22.0867 20.7137 24.4887 23.0381 24.4887 25.898C24.4887 25.9834 24.4809 26.0648 24.4771 26.1463L53.2621 26.1657C53.2582 26.0765 53.2504 25.9911 53.2504 25.898C53.2504 23.0381 55.5748 20.7137 58.4347 20.7137C61.2946 20.7137 63.6034 23.0265 63.6189 25.8747C64.0264 25.8398 64.3873 25.801 64.6705 25.7544C65.0702 25.6884 65.466 25.6186 65.8618 25.5332C66.4478 25.4091 66.8669 24.8968 66.8669 24.2954V20.9194C66.9406 18.5717 65.2953 17.9237 65.2953 17.9237L65.2992 17.9198ZM15.0787 13.1003C15.0787 13.2866 14.9273 13.4418 14.7372 13.4418H6.98021C6.79395 13.4418 6.63873 13.2905 6.63873 13.1003V7.83459C6.63873 7.64833 6.79006 7.49311 6.98021 7.49311H14.7372C14.9234 7.49311 15.0787 7.64445 15.0787 7.83459V13.1003ZM30.0106 14.6797C30.0106 14.8659 29.8592 15.0211 29.6691 15.0211H21.9121C21.7258 15.0211 21.5706 14.8698 21.5706 14.6797V7.83459C21.5706 7.64833 21.722 7.49311 21.9121 7.49311H29.6691C29.8553 7.49311 30.0106 7.64445 30.0106 7.83459V14.6797ZM37.849 17.5589C37.849 17.8965 37.6278 18.1721 37.3562 18.1721C37.0846 18.1721 36.8634 17.8965 36.8634 17.5589V15.2967C36.8634 14.9591 37.0846 14.6835 37.3562 14.6835C37.6278 14.6835 37.849 14.9591 37.849 15.2967V17.5589ZM41.0426 11.944C41.0426 12.1302 40.8913 12.2854 40.7011 12.2854H37.2087C37.0225 12.2854 36.8673 12.1341 36.8673 11.944V7.83459C36.8673 7.64833 37.0186 7.49311 37.2087 7.49311H40.7011C40.8874 7.49311 41.0426 7.64445 41.0426 7.83459V11.944ZM57.7556 16.6703C57.7556 16.8566 57.6043 17.0118 57.4141 17.0118H48.4542C48.268 17.0118 48.1128 16.8605 48.1128 16.6703V11.3735C48.1128 11.1873 48.2641 11.0321 48.4542 11.0321H51.3568C51.9699 11.0321 52.5597 11.261 53.0099 11.6801L57.647 15.9602C57.7168 16.0262 57.7556 16.1154 57.7556 16.2124V16.6703Z" fill="#999999"/>
<path d="M19.3122 21.874C17.1237 21.874 15.3387 23.6357 15.296 25.8126C15.296 25.8398 15.2921 25.867 15.2921 25.8941C15.2921 28.1099 17.0965 29.9143 19.3122 29.9143C21.528 29.9143 23.1927 28.2418 23.3207 26.1386C23.3246 26.0571 23.3324 25.9756 23.3324 25.8902C23.3324 23.6745 21.528 21.8701 19.3122 21.8701V21.874Z" fill="#999999"/>
<path d="M58.4424 21.874C56.2266 21.874 54.4222 23.6784 54.4222 25.8941C54.4222 25.9834 54.43 26.0687 54.4339 26.158C54.5697 28.2534 56.312 29.9143 58.4424 29.9143C60.5727 29.9143 62.4314 28.1409 62.4625 25.9485C62.4625 25.929 62.4625 25.9096 62.4625 25.8902C62.4625 23.6745 60.6581 21.8701 58.4424 21.8701V21.874Z" fill="#999999"/>
</svg>
