<svg width="75" height="29" viewBox="0 0 75 29" fill="none" xmlns="http://www.w3.org/2000/svg">
<path d="M73.7789 17.0602C73.6325 16.4921 73.4373 15.9345 73.1794 15.4012L72.1443 13.2334L67.9202 4.40882L66.9931 2.47452C66.6132 1.6764 65.8081 1.17104 64.9229 1.17104H48.7793V0.508844C48.7793 0.230025 48.5527 0 48.2704 0H41.1013C40.8225 0 40.5925 0.22654 40.5925 0.508844V1.17104H28.896V0.508844C28.896 0.230025 28.6695 0 28.3872 0H21.2181C20.9392 0 20.7092 0.22654 20.7092 0.508844V1.17104H14.9412V0.508844C14.9412 0.230025 14.7146 0 14.4323 0H7.26319C6.98437 0 6.75434 0.22654 6.75434 0.508844V1.17104H1.6206C1.00022 1.17104 0.498351 1.6764 0.498351 2.29677V20.6361C0.498351 20.6361 0.480924 20.894 0.623819 21.1588C0.721406 21.3505 0.871271 21.5213 1.06644 21.6259C4.97339 23.6856 9.68542 24.6371 13.4007 25.0797C13.2334 24.2363 13.2334 23.3336 13.4843 22.3996C14.2127 19.6707 16.7395 17.7259 19.5626 17.8026C22.8526 17.8932 25.5014 20.5977 25.5014 23.9087C25.5014 24.4489 25.4247 24.9682 25.2923 25.4666H58.3184C58.057 24.4803 58.0117 23.4068 58.3532 22.2706C59.1513 19.6114 61.6259 17.7224 64.4001 17.8026C67.6832 17.9002 70.325 20.6012 70.325 23.9087C70.325 24.4489 70.2483 24.9682 70.1159 25.4666H72.9354C73.5558 25.4666 74.0577 24.9647 74.0577 24.3444V20.6012C74.0577 20.6012 74.0368 18.0465 73.7754 17.0672L73.7789 17.0602ZM18.5309 13.0278C18.5309 13.1951 18.395 13.3275 18.2312 13.3275H6.83102C6.66721 13.3275 6.53129 13.1916 6.53129 13.0278V5.96672C6.53129 5.80291 6.66721 5.66699 6.83102 5.66699H18.2312C18.395 5.66699 18.5309 5.80291 18.5309 5.96672V13.0278ZM32.6671 16.6803C32.6671 16.9835 32.4684 17.231 32.2244 17.231C31.9805 17.231 31.7818 16.9835 31.7818 16.6803V14.6484C31.7818 14.3452 31.9805 14.0978 32.2244 14.0978C32.4684 14.0978 32.6671 14.3452 32.6671 14.6484V16.6803ZM37.1874 10.968C37.1874 11.4211 36.818 11.7905 36.3649 11.7905H32.6078C32.1547 11.7905 31.7853 11.4211 31.7853 10.968V6.48602C31.7853 6.03294 32.1547 5.6635 32.6078 5.6635H36.3649C36.818 5.6635 37.1874 6.03294 37.1874 6.48602V10.968ZM52.3238 13.0278C52.3238 13.1916 52.1878 13.3275 52.024 13.3275H42.3978C42.2305 13.3275 42.0981 13.1916 42.0981 13.0278V5.96672C42.0981 5.79943 42.2305 5.66699 42.3978 5.66699H52.024C52.1878 5.66699 52.3238 5.80291 52.3238 5.96672V13.0278ZM68.8263 15.098C68.8263 15.2618 68.6904 15.3978 68.5266 15.3978H56.5653C56.398 15.3978 56.2656 15.2618 56.2656 15.098V5.96323C56.2656 5.79943 56.398 5.6635 56.5653 5.6635H64.9124C65.0274 5.6635 65.132 5.72972 65.1843 5.83428L68.6137 12.9999C68.7566 13.2962 68.8298 13.6238 68.8298 13.9514V15.098H68.8263Z" fill="#999999"/>
<path d="M19.3954 19.1897C16.7954 19.1897 14.6833 21.3052 14.6833 23.9052C14.6833 26.5052 16.7989 28.6173 19.3954 28.6173C21.9919 28.6173 24.1109 26.5017 24.1109 23.9052C24.1109 21.3087 21.9954 19.1897 19.3954 19.1897Z" fill="#999999"/>
<path d="M64.2188 19.1897C61.6188 19.1897 59.5033 21.3052 59.5033 23.9052C59.5033 26.5052 61.6188 28.6173 64.2188 28.6173C66.8188 28.6173 68.9343 26.5017 68.9343 23.9052C68.9343 21.3087 66.8188 19.1897 64.2188 19.1897Z" fill="#999999"/>
</svg>
