<svg width="67" height="30" viewBox="0 0 67 30" fill="none" xmlns="http://www.w3.org/2000/svg">
<path d="M66.8547 22.2281L66.665 20.5574L66.5863 19.8632C66.1004 15.4528 64.4852 14.9344 64.4852 14.9344L60.408 13.0647C58.9178 12.3844 57.534 11.5005 56.2845 10.4407L47.1443 2.68422C46.3297 1.99466 45.2977 1.61517 44.2286 1.61517H16.5442V0.675692C16.5442 0.305455 16.2434 0 15.8685 0H6.34882C5.97859 0 5.67314 0.300827 5.67314 0.675692V1.61517H2.56316C1.85508 1.61517 1.147 2.19828 1.0637 2.96652C1.0637 2.96652 -0.199735 9.64004 0.508342 18.9839C0.202897 19.1783 -0.000732422 19.5207 -0.000732422 19.9095V22.7649C-0.000732422 23.3712 0.494458 23.8664 1.10072 23.8664H1.27658L6.97823 24.3893C7.26053 21.2377 9.91235 18.7617 13.1334 18.7617C16.5442 18.7617 19.3164 21.5385 19.3164 24.9447C19.3164 24.9724 19.3164 24.9956 19.3164 25.0234L21.3943 24.9817H48.7918C48.7918 24.9817 48.7918 24.9586 48.7918 24.9493C48.7918 21.5385 51.5639 18.7664 54.9748 18.7664C58.3856 18.7664 60.8754 21.2701 61.1346 24.4449C62.3471 24.3431 63.1061 24.269 63.1061 24.269C64.1011 24.1255 65.5867 23.908 65.5867 23.908C66.3873 23.7877 66.9519 23.0518 66.8593 22.2466L66.8547 22.2281ZM20.8482 11.5838C20.8251 11.792 20.6538 11.9494 20.4456 11.9494H3.83584C3.72014 11.9494 3.60907 11.8985 3.53503 11.8152C3.45635 11.7319 3.41933 11.6162 3.43321 11.5005L4.16906 5.91453C4.1922 5.70627 4.36343 5.54893 4.57169 5.54893H21.1814C21.2971 5.54893 21.4082 5.5952 21.4822 5.68313C21.5609 5.76643 21.5979 5.88214 21.5841 5.99784L20.8528 11.5838H20.8482ZM37.4626 11.0053C37.4626 11.2228 37.2821 11.4033 37.0646 11.4033H27.642C27.4245 11.4033 27.244 11.2228 27.244 11.0053V5.94693C27.244 5.72941 27.4245 5.54893 27.642 5.54893H37.0646C37.2821 5.54893 37.4626 5.72941 37.4626 5.94693V11.0053ZM45.5106 16.7162H44.2518C43.8491 16.7162 43.5206 16.4524 43.5206 16.1284C43.5206 15.8045 43.8491 15.5407 44.2518 15.5407H45.5106C45.9132 15.5407 46.2418 15.8045 46.2418 16.1284C46.2418 16.4524 45.9132 16.7162 45.5106 16.7162ZM56.0114 13.4072C55.9512 13.5645 55.7985 13.6756 55.6319 13.6756H43.9278C43.7057 13.6756 43.5206 13.4951 43.5206 13.2684V6.29402C43.5206 6.07188 43.7011 5.88676 43.9278 5.88676H46.5796C47.2137 5.88676 47.8292 6.11353 48.3151 6.52542L55.8957 12.9583C56.0253 13.0693 56.0716 13.2498 56.016 13.4072H56.0114Z" fill="#999999"/>
<path d="M54.9749 20.1409C52.3323 20.1409 50.1803 22.2929 50.1803 24.9354C50.1803 24.9493 50.1803 24.9586 50.1803 24.9678C50.1988 27.5965 52.3416 29.73 54.9749 29.73C57.6082 29.73 59.7694 27.578 59.7694 24.9354C59.7694 24.8012 59.7602 24.6716 59.7509 24.5374C59.5473 22.08 57.4832 20.1362 54.9749 20.1362V20.1409Z" fill="#999999"/>
<path d="M13.1333 20.1409C10.6342 20.1409 8.57939 22.0615 8.35724 24.505C8.34336 24.6485 8.33411 24.792 8.33411 24.9354C8.33411 27.5826 10.4861 29.73 13.1287 29.73C15.7712 29.73 17.8631 27.6382 17.9186 25.0419C17.9186 25.0048 17.9232 24.9724 17.9232 24.9354C17.9232 22.2929 15.7712 20.1409 13.1287 20.1409H13.1333Z" fill="#999999"/>
</svg>
