<svg width="74" height="32" viewBox="0 0 74 32" fill="none" xmlns="http://www.w3.org/2000/svg">
<path d="M26.2341 26.0656C26.2415 25.9035 26.3447 25.7708 26.3336 25.6124C26.2268 25.3249 26.1236 24.938 25.8656 24.75C25.5082 24.6542 25.2723 24.3373 25.0696 24.0425C24.9922 23.9245 24.9996 23.7734 24.9443 23.6592C24.7785 23.4454 24.4763 23.3054 24.2367 23.1654C24.0856 23.0769 23.9272 23.1801 23.7687 23.1801C23.6361 23.1838 23.5144 23.1433 23.3854 23.1027C23.2601 23.0659 23.1201 23.0364 22.9985 22.9664C22.8548 22.8927 22.7774 22.7453 22.63 22.6863C22.361 22.6457 22.044 22.6457 21.7676 22.6863C21.5797 22.7674 21.4581 22.9958 21.2296 23.0401L21.1817 23.0548C21.0122 23.0953 20.7616 23.2059 20.5589 23.1764C20.4446 23.1654 20.3341 23.1064 20.2272 23.1433C19.9692 23.2575 19.7002 23.427 19.4901 23.6113C19.387 23.7292 19.4201 23.9098 19.3317 24.0498C19.1916 24.2673 19.0295 24.4552 18.8379 24.621C18.7126 24.7205 18.5467 24.7279 18.4325 24.8385C18.1561 25.3433 17.9718 25.5497 18.1598 26.0104C18.1782 26.3826 18.1377 26.8211 17.8834 27.1086C17.7802 27.3481 17.8797 27.6319 17.9092 27.8825C17.9239 28.0925 18.0308 28.2031 18.1966 28.3136C18.403 28.5311 18.5099 28.8185 18.602 29.1023C18.6426 29.2607 18.5799 29.4155 18.6315 29.5666C18.7973 29.8062 19.0111 30.0936 19.258 30.2447C19.4975 30.2705 19.7555 30.3147 19.9508 30.4806C20.0614 30.5543 20.1867 30.6206 20.2862 30.7238C20.4483 30.9007 20.4778 31.1365 20.7579 31.1771C20.9606 31.2434 21.178 31.3134 21.3881 31.3355C21.5649 31.3282 21.6976 31.166 21.8892 31.1586C22.0551 31.1402 22.1767 31.155 22.3094 31.1476C22.6816 31.096 22.8585 31.4313 23.2233 31.295C23.437 31.2397 23.6582 31.1844 23.8461 31.0886C23.9898 30.9891 24.0119 30.7754 24.1704 30.6648C24.2994 30.5579 24.4357 30.4879 24.5684 30.3958C24.7895 30.2005 25.1212 30.3479 25.3128 30.1083C25.3386 30.0826 25.3902 30.031 25.4123 30.0052C25.5487 29.843 25.7293 29.6772 25.7919 29.4929C25.7845 29.2497 25.7882 28.9844 25.9246 28.7669C26.0057 28.5053 26.201 28.2878 26.4073 28.1331C26.4884 28.0078 26.4958 27.8161 26.529 27.6577C26.5474 27.5139 26.5732 27.3628 26.5621 27.2228C26.54 27.068 26.3852 26.9759 26.3373 26.8174C26.2636 26.5705 26.2305 26.3273 26.2305 26.073L26.2341 26.0656Z" fill="#999999"/>
<path d="M69.3848 26.0656C69.3921 25.9035 69.4953 25.7708 69.4843 25.6124C69.3774 25.3249 69.2742 24.938 69.0162 24.75C68.6588 24.6542 68.4229 24.3373 68.2202 24.0425C68.1428 23.9245 68.1502 23.7734 68.0949 23.6592C67.9291 23.4454 67.6269 23.3054 67.3874 23.1654C67.2363 23.0769 67.0778 23.1801 66.9193 23.1801C66.7867 23.1838 66.6651 23.1433 66.5361 23.1027C66.4108 23.0659 66.2707 23.0364 66.1491 22.9664C66.0054 22.8927 65.928 22.7453 65.7806 22.6863C65.5153 22.6457 65.1946 22.6457 64.9183 22.6863C64.7303 22.7674 64.6087 22.9958 64.3802 23.0401L64.3323 23.0548C64.1628 23.0953 63.9122 23.2059 63.7095 23.1764C63.5953 23.1654 63.4847 23.1064 63.3778 23.1433C63.1199 23.2575 62.8508 23.427 62.6408 23.6113C62.5376 23.7292 62.5708 23.9098 62.4823 24.0498C62.3423 24.2673 62.1801 24.4552 61.9885 24.621C61.8632 24.7205 61.6974 24.7279 61.5831 24.8385C61.3067 25.3433 61.1225 25.5497 61.3104 26.0104C61.3288 26.3826 61.2883 26.8211 61.034 27.1086C60.9308 27.3481 61.0303 27.6319 61.0598 27.8825C61.0746 28.0925 61.1814 28.2031 61.3473 28.3136C61.5536 28.5311 61.6605 28.8185 61.7526 29.1023C61.7932 29.2607 61.7305 29.4155 61.7821 29.5666C61.9479 29.8062 62.1617 30.0936 62.4086 30.2447C62.6481 30.2705 62.9061 30.3147 63.1014 30.4806C63.212 30.5543 63.3373 30.6206 63.4368 30.7238C63.5989 30.9007 63.6284 31.1365 63.9085 31.1771C64.1112 31.2434 64.3286 31.3134 64.5387 31.3355C64.7156 31.3282 64.8482 31.166 65.0399 31.1586C65.2057 31.1402 65.3273 31.155 65.46 31.1476C65.8322 31.096 66.0091 31.4313 66.3739 31.295C66.5877 31.2397 66.8088 31.1844 66.9967 31.0886C67.1405 30.9891 67.1626 30.7754 67.321 30.6648C67.45 30.5579 67.5864 30.4879 67.719 30.3958C67.9401 30.2005 68.2718 30.3479 68.4634 30.1083C68.4892 30.0826 68.5408 30.031 68.563 30.0052C68.6993 29.843 68.8799 29.6772 68.9425 29.4929C68.9352 29.2497 68.9389 28.9844 69.0752 28.7669C69.1563 28.5053 69.3516 28.2878 69.558 28.1331C69.639 28.0078 69.6464 27.8161 69.6796 27.6577C69.698 27.5139 69.7238 27.3628 69.7127 27.2228C69.6906 27.068 69.5359 26.9759 69.488 26.8174C69.4142 26.5705 69.3811 26.3273 69.3811 26.073L69.3848 26.0656Z" fill="#999999"/>
<path d="M71.3305 17.3832L66.4144 16.6757L60.9492 11.6269L60.3596 11.0741H60.7355H62.7402C63.4883 11.0741 64.1259 10.5213 64.2254 9.77693L64.4133 8.40233C64.4981 7.76847 64.2217 7.14198 63.6947 6.78083L59.7405 4.0685C58.1521 2.97767 56.2726 2.3954 54.3453 2.3954H52.7532V0.342724C52.7532 0.154777 52.5985 0 52.4105 0H19.4387C19.2508 0 19.096 0.154777 19.096 0.342724V2.3954H17.2276V1.79839C17.2276 1.50357 16.988 1.26035 16.6895 1.26035H9.109C8.81418 1.26035 8.57095 1.49989 8.57095 1.79839V2.3954H4.62407C3.32318 2.3954 2.2692 3.44938 2.2692 4.75027V5.292H1.34789C1.35895 5.14459 1.36633 4.99718 1.38107 4.84977C1.39213 4.72447 1.40317 4.59917 1.41422 4.47387C1.42528 4.35226 1.43265 4.27119 1.43265 4.26013C1.50635 3.57468 1.66482 2.85237 1.98912 2.24431C2.4682 1.34142 4.02337 1.56254 4.88571 1.52937C5.33162 1.51463 5.30583 0.821807 4.8636 0.840233C3.95335 0.8734 2.84041 0.759159 2.01123 1.21613C1.15994 1.68784 0.894617 3.07348 0.780375 3.95794C0.562946 5.63472 0.52241 7.35204 0.459761 9.03988C0.371315 11.4169 0.540825 19.4875 0.540825 21.8645C0.540825 22.3104 1.22996 22.2846 1.22996 21.8424C1.22996 21.2196 1.2226 20.4015 1.21892 19.4617H2.27658V22.2072C2.27658 22.2072 2.26182 23.3238 2.7667 24.3962C2.7667 24.3962 2.95834 24.7979 4.13024 24.9896C4.13024 24.9896 11.4123 26.2057 16.5569 26.8138C16.6564 23.7771 19.1402 21.3449 22.2027 21.3449C25.2651 21.3449 27.8558 23.8766 27.8558 26.998C27.8558 27.0496 27.8484 27.1012 27.8484 27.1528L59.711 27.1675C59.711 27.1086 59.7036 27.0533 59.7036 26.9943C59.7036 23.8729 62.2354 21.3412 65.3568 21.3412C68.4781 21.3412 70.9104 23.7808 71.0025 26.8248C71.1242 26.8101 71.2421 26.7953 71.3453 26.7769C71.7285 26.7143 72.1081 26.6442 72.4914 26.5632C73.0405 26.4452 73.4311 25.9551 73.4311 25.3913V20.3425C73.5011 18.1166 72.3771 17.5528 71.3379 17.3722L71.3305 17.3832ZM2.27658 18.7726H1.21523C1.18206 14.6156 1.13415 8.61608 1.29998 6.01062C1.29998 5.99956 1.29998 5.99219 1.29998 5.98113H2.27289V9.17992V18.7726H2.27658ZM19.1034 17.8034C19.1034 17.9803 18.9596 18.1277 18.7791 18.1277H11.4123C11.2354 18.1277 11.088 17.9839 11.088 17.8034V11.3026C11.088 11.1257 11.2317 10.9783 11.4123 10.9783H18.7791C18.9559 10.9783 19.1034 11.122 19.1034 11.3026V17.8034ZM35.2447 0.899198C35.4326 0.899198 35.5874 1.05398 35.5874 1.24192V2.3954H34.4819L32.6134 0.899198H35.2447ZM19.7888 2.3954V1.24192C19.7888 1.05398 19.9436 0.899198 20.1315 0.899198H22.2469C22.4311 0.899198 22.5122 1.13137 22.3685 1.24929L20.9349 2.39909H19.7888V2.3954ZM23.7873 1.26035C23.4925 1.26035 23.2492 1.49989 23.2492 1.79839V2.3954H21.8894L23.7136 0.936047C23.7431 0.913936 23.7799 0.899198 23.8168 0.899198H31.6553L33.5237 2.3954H31.9022V1.79839C31.9022 1.50357 31.6626 1.26035 31.3641 1.26035H23.7836H23.7873ZM36.3687 16.3035C36.3687 16.4804 36.225 16.6278 36.0444 16.6278H28.6776C28.5007 16.6278 28.3533 16.484 28.3533 16.3035V11.3026C28.3533 11.1257 28.497 10.9783 28.6776 10.9783H36.0444C36.2213 10.9783 36.3687 11.122 36.3687 11.3026V16.3035ZM36.2729 2.3954V1.24192C36.2729 1.05398 36.4277 0.899198 36.6156 0.899198H39.2469L37.3784 2.3954H36.2729ZM45.8618 20.5341C45.8618 20.8547 45.6518 21.1164 45.3938 21.1164C45.1359 21.1164 44.9258 20.8547 44.9258 20.5341V18.3856C44.9258 18.065 45.1359 17.8034 45.3938 17.8034C45.6518 17.8034 45.8618 18.065 45.8618 18.3856V20.5341ZM48.8948 15.2053C48.8948 15.3822 48.7511 15.5296 48.5705 15.5296H45.2538C45.0769 15.5296 44.9295 15.3858 44.9295 15.2053V11.3026C44.9295 11.1257 45.0732 10.9783 45.2538 10.9783H48.5705C48.7474 10.9783 48.8948 11.122 48.8948 11.3026V15.2053ZM48.6184 2.3954V1.79839C48.6184 1.50357 48.3789 1.26035 48.0804 1.26035H40.4998C40.205 1.26035 39.9618 1.49989 39.9618 1.79839V2.3954H38.3366L40.205 0.899198H48.0951C48.1393 0.899198 48.1836 0.913937 48.2167 0.943419L50.0335 2.39909H48.6184V2.3954ZM52.0752 2.3954H50.9917L49.5545 1.24561C49.4107 1.13136 49.4918 0.899198 49.6761 0.899198H51.7288C51.9167 0.899198 52.0715 1.05398 52.0715 1.24192V2.3954H52.0752ZM64.1259 17.4164C64.1259 17.5712 64.0006 17.6965 63.8458 17.6965H56.5269C56.3721 17.6965 56.2469 17.5712 56.2469 17.4164V13.0899C56.2469 12.9352 56.3721 12.8099 56.5269 12.8099H58.8965C59.3977 12.8099 59.8805 12.9978 60.249 13.3369L64.008 16.8084C64.0854 16.8784 64.1259 16.9779 64.1259 17.0811V17.4164Z" fill="#999999"/>
</svg>
