<svg width="72" height="30" viewBox="0 0 72 30" fill="none" xmlns="http://www.w3.org/2000/svg">
<path d="M25.5239 24.5347C25.531 24.377 25.6314 24.248 25.6206 24.0939C25.5167 23.8143 25.4163 23.4379 25.1654 23.2551C24.8178 23.162 24.5884 22.8537 24.3912 22.567C24.316 22.4523 24.3231 22.3053 24.2694 22.1942C24.1081 21.9863 23.8142 21.8501 23.5812 21.7139C23.4342 21.6279 23.2801 21.7282 23.126 21.7282C22.997 21.7318 22.8787 21.6924 22.7532 21.653C22.6314 21.6171 22.4952 21.5885 22.3769 21.5204C22.2371 21.4487 22.1618 21.3053 22.0185 21.248C21.7568 21.2085 21.4485 21.2085 21.1797 21.248C20.9969 21.3268 20.8786 21.549 20.6564 21.592L20.6098 21.6064C20.445 21.6458 20.2012 21.7533 20.0041 21.7247C19.893 21.7139 19.7854 21.6566 19.6815 21.6924C19.4306 21.8035 19.169 21.9684 18.9646 22.1476C18.8643 22.2623 18.8966 22.4379 18.8105 22.5741C18.6743 22.7856 18.5166 22.9684 18.3302 23.1297C18.2084 23.2265 18.0471 23.2336 17.936 23.3412C17.6671 23.8322 17.4879 24.0329 17.6707 24.481C17.6887 24.843 17.6492 25.2695 17.4019 25.5491C17.3016 25.7821 17.3983 26.058 17.427 26.3018C17.4413 26.5061 17.5453 26.6136 17.7066 26.7211C17.9073 26.9326 18.0112 27.2122 18.1008 27.4882C18.1403 27.6423 18.0793 27.7928 18.1295 27.9398C18.2908 28.1728 18.4987 28.4523 18.7388 28.5993C18.9718 28.6244 19.2227 28.6674 19.4127 28.8287C19.5202 28.9004 19.6421 28.9649 19.7389 29.0652C19.8966 29.2373 19.9252 29.4667 20.1976 29.5061C20.3948 29.5706 20.6062 29.6387 20.8105 29.6602C20.9826 29.6531 21.1116 29.4954 21.298 29.4882C21.4593 29.4703 21.5776 29.4846 21.7066 29.4774C22.0686 29.4273 22.2407 29.7534 22.5955 29.6208C22.8034 29.567 23.0185 29.5133 23.2013 29.4201C23.341 29.3233 23.3626 29.1154 23.5167 29.0079C23.6421 28.904 23.7747 28.8359 23.9038 28.7462C24.1188 28.5563 24.4414 28.6996 24.6278 28.4667C24.6529 28.4416 24.7031 28.3914 24.7246 28.3663C24.8572 28.2086 25.0328 28.0473 25.0938 27.8681C25.0866 27.6315 25.0902 27.3735 25.2228 27.162C25.3016 26.9075 25.4916 26.696 25.6923 26.5455C25.7712 26.4236 25.7783 26.2373 25.8106 26.0831C25.8285 25.9433 25.8536 25.7964 25.8429 25.6602C25.8214 25.5096 25.6708 25.42 25.6242 25.2659C25.5525 25.0258 25.5203 24.7892 25.5203 24.5419L25.5239 24.5347Z" fill="#999999"/>
<path d="M67.4957 24.5347C67.5028 24.377 67.6032 24.248 67.5924 24.0939C67.4885 23.8143 67.3881 23.4379 67.1372 23.2551C66.7896 23.162 66.5602 22.8537 66.363 22.567C66.2878 22.4523 66.2949 22.3053 66.2412 22.1942C66.0799 21.9863 65.786 21.8501 65.553 21.7139C65.406 21.6279 65.2519 21.7282 65.0978 21.7282C64.9687 21.7318 64.8505 21.6924 64.725 21.653C64.6032 21.6171 64.467 21.5885 64.3487 21.5204C64.2089 21.4487 64.1336 21.3053 63.9902 21.248C63.7286 21.2085 63.4203 21.2085 63.1515 21.248C62.9687 21.3268 62.8505 21.549 62.6282 21.592L62.5816 21.6064C62.4168 21.6458 62.173 21.7533 61.9759 21.7247C61.8648 21.7139 61.7572 21.6566 61.6533 21.6924C61.4024 21.8035 61.1408 21.9684 60.9365 22.1476C60.8361 22.2623 60.8684 22.4379 60.7823 22.5741C60.6461 22.7856 60.4884 22.9684 60.302 23.1297C60.1802 23.2265 60.0189 23.2336 59.9078 23.3412C59.6389 23.8322 59.4597 24.0329 59.6425 24.481C59.6605 24.843 59.621 25.2695 59.3737 25.5491C59.2734 25.7821 59.3701 26.058 59.3988 26.3018C59.4131 26.5061 59.5171 26.6136 59.6784 26.7211C59.8791 26.9326 59.983 27.2122 60.0726 27.4882C60.1121 27.6423 60.0511 27.7928 60.1013 27.9398C60.2626 28.1728 60.4705 28.4523 60.7106 28.5993C60.9436 28.6244 61.1945 28.6674 61.3845 28.8287C61.492 28.9004 61.6139 28.9649 61.7107 29.0652C61.8684 29.2373 61.897 29.4667 62.1694 29.5061C62.3666 29.5706 62.578 29.6387 62.7823 29.6602C62.9544 29.6531 63.0834 29.4954 63.2698 29.4882C63.4311 29.4703 63.5494 29.4846 63.6784 29.4774C64.0404 29.4273 64.2125 29.7534 64.5673 29.6208C64.7752 29.567 64.9903 29.5133 65.1731 29.4201C65.3128 29.3233 65.3344 29.1154 65.4885 29.0079C65.6139 28.904 65.7465 28.8359 65.8756 28.7462C66.0906 28.5563 66.4132 28.6996 66.5996 28.4667C66.6247 28.4416 66.6749 28.3914 66.6964 28.3663C66.829 28.2086 67.0046 28.0473 67.0656 27.8681C67.0584 27.6315 67.062 27.3735 67.1946 27.162C67.2734 26.9075 67.4634 26.696 67.6641 26.5455C67.743 26.4236 67.7501 26.2373 67.7824 26.0831C67.8003 25.9433 67.8254 25.7964 67.8147 25.6602C67.7932 25.5096 67.6426 25.42 67.596 25.2659C67.5243 25.0258 67.4921 24.7892 67.4921 24.5419L67.4957 24.5347Z" fill="#999999"/>
<path d="M69.3881 16.0901L64.6067 15.402L59.2913 10.4915L58.7178 9.95387H59.0834H61.0332C61.7608 9.95387 62.3809 9.41623 62.4777 8.6922L62.6605 7.35527C62.7429 6.73878 62.4741 6.12945 61.9615 5.77819L58.1156 3.14017C56.5708 2.07923 54.7428 1.51291 52.8682 1.51291H49.0187V0.932258C49.0187 0.645516 48.7858 0.408958 48.4954 0.408958H41.1226C40.8359 0.408958 40.5993 0.641932 40.5993 0.932258V1.51291H31.0831V0.932258C31.0831 0.645516 30.8501 0.408958 30.5598 0.408958H23.1869C22.9002 0.408958 22.6636 0.641932 22.6636 0.932258V1.51291H16.7675V0.932258C16.7675 0.645516 16.5345 0.408958 16.2442 0.408958H8.87134C8.5846 0.408958 8.34804 0.641932 8.34804 0.932258V1.51291H4.50929C3.24404 1.51291 2.21894 2.53801 2.21894 3.80326V4.33015H1.32287C1.33362 4.18678 1.34079 4.04341 1.35513 3.90004C1.36588 3.77817 1.37663 3.65631 1.38738 3.53444C1.39814 3.41616 1.40531 3.33731 1.40531 3.32655C1.477 2.65988 1.63112 1.95736 1.94654 1.36596C2.4125 0.487811 3.92505 0.702866 4.76377 0.670608C5.19747 0.656271 5.17238 -0.0175701 4.74227 0.000351208C3.85695 0.0326096 2.77451 -0.0785012 1.96804 0.365948C1.14008 0.824735 0.882012 2.17242 0.7709 3.03264C0.559428 4.66348 0.519992 6.33376 0.45906 7.97535C0.373037 10.2872 0.537914 18.1368 0.537914 20.4486C0.537914 20.8823 1.20817 20.8572 1.20817 20.4271C1.20817 19.8214 1.201 19.0257 1.19742 18.1117H2.22611V20.7819C2.22611 20.7819 2.21177 21.868 2.70282 22.911C2.70282 22.911 2.8892 23.3017 4.029 23.4881C4.029 23.4881 11.1115 24.6709 16.1152 25.2623C16.2119 22.3088 18.6277 19.9432 21.6062 19.9432C24.5848 19.9432 27.1045 22.4056 27.1045 25.4415C27.1045 25.4917 27.0974 25.5419 27.0974 25.592L58.0869 25.6064C58.0869 25.549 58.0798 25.4953 58.0798 25.4379C58.0798 22.402 60.5422 19.9396 63.578 19.9396C66.6139 19.9396 68.9795 22.3124 69.0691 25.273C69.1874 25.2587 69.3021 25.2444 69.4025 25.2264C69.7752 25.1655 70.1444 25.0974 70.5172 25.0186C71.0513 24.9039 71.4312 24.4271 71.4312 23.8787V18.9683C71.4993 16.8034 70.4061 16.255 69.3953 16.0794L69.3881 16.0901ZM2.22252 8.11155V17.4414H1.19025C1.158 13.3984 1.1114 7.56316 1.2727 5.02908C1.2727 5.01833 1.2727 5.01116 1.2727 5.00041H2.21894V8.11155H2.22252ZM18.5883 16.4987C18.5883 16.6708 18.4485 16.8142 18.2729 16.8142H11.1079C10.9359 16.8142 10.7925 16.6744 10.7925 16.4987V10.1761C10.7925 10.004 10.9323 9.86067 11.1079 9.86067H18.2729C18.4449 9.86067 18.5883 10.0005 18.5883 10.1761V16.4987ZM35.3806 15.0399C35.3806 15.212 35.2408 15.3554 35.0652 15.3554H27.9002C27.7282 15.3554 27.5848 15.2156 27.5848 15.0399V10.1761C27.5848 10.004 27.7246 9.86067 27.9002 9.86067H35.0652C35.2372 9.86067 35.3806 10.0005 35.3806 10.1761V15.0399ZM44.6137 19.1547C44.6137 19.4665 44.4094 19.721 44.1585 19.721C43.9076 19.721 43.7033 19.4665 43.7033 19.1547V17.0651C43.7033 16.7532 43.9076 16.4987 44.1585 16.4987C44.4094 16.4987 44.6137 16.7532 44.6137 17.0651V19.1547ZM47.5635 13.9718C47.5635 14.1439 47.4237 14.2872 47.2481 14.2872H44.0223C43.8502 14.2872 43.7069 14.1475 43.7069 13.9718V10.1761C43.7069 10.004 43.8466 9.86067 44.0223 9.86067H47.2481C47.4202 9.86067 47.5635 10.0005 47.5635 10.1761V13.9718ZM62.3773 16.1224C62.3773 16.2729 62.2555 16.3948 62.1049 16.3948H54.9866C54.836 16.3948 54.7142 16.2729 54.7142 16.1224V11.9145C54.7142 11.7639 54.836 11.6421 54.9866 11.6421H57.2912C57.7787 11.6421 58.2482 11.8249 58.6067 12.1546L62.2626 15.531C62.3379 15.5991 62.3773 15.6959 62.3773 15.7962V16.1224Z" fill="#999999"/>
</svg>
