<svg width="71" height="27" viewBox="0 0 71 27" fill="none" xmlns="http://www.w3.org/2000/svg">
<path d="M21.0127 19.4656C19.1986 19.4656 17.7234 20.9408 17.7234 22.7549C17.7234 22.8405 17.7302 22.9261 17.7371 23.0116C17.8706 24.7059 19.2876 26.0443 21.0127 26.0443C22.7379 26.0443 24.1583 24.7059 24.2884 23.0116C24.2952 22.9261 24.3021 22.8405 24.3021 22.7549C24.3021 20.9408 22.8268 19.4656 21.0127 19.4656Z" fill="#999999"/>
<path d="M29.32 19.4656C27.5059 19.4656 26.0306 20.9408 26.0306 22.7549C26.0306 22.8405 26.0375 22.9261 26.0443 23.0116C26.1778 24.7059 27.5949 26.0443 29.32 26.0443C31.0451 26.0443 32.4656 24.7059 32.5956 23.0116C32.6025 22.9261 32.6093 22.8405 32.6093 22.7549C32.6093 20.9408 31.1341 19.4656 29.32 19.4656Z" fill="#999999"/>
<path d="M70.1922 19.8354H67.8065V18.0384C67.8065 17.7337 67.56 17.4873 67.2554 17.4873C66.9508 17.4873 66.7043 17.7337 66.7043 18.0384V19.8354H61.2962V17.7406C61.2962 16.9841 60.6801 16.368 59.9237 16.368H56.4187V15.9059C56.4187 7.67059 49.7202 0.972086 41.4848 0.972086H27.4751V0.499732C27.4751 0.225905 27.2527 0 26.9754 0H19.9346C19.6608 0 19.4349 0.222482 19.4349 0.499732V0.972086H2.58082C1.82437 0.972086 1.20826 1.5882 1.20826 2.34465V18.1582H0.814636C0.366244 18.1582 0 18.5244 0 18.9728V21.0847C0 21.5331 0.366244 21.8993 0.814636 21.8993H1.23222C1.35202 22.5326 1.90995 23.0152 2.5774 23.0152H16.7069C16.7035 22.9296 16.6932 22.844 16.6932 22.7585C16.6932 20.3796 18.6305 18.4423 21.0094 18.4423C22.9878 18.4423 24.6547 19.7806 25.1613 21.5947C25.6713 19.7772 27.3382 18.4423 29.3132 18.4423C31.6955 18.4423 33.6294 20.3796 33.6294 22.7585C33.6294 22.844 33.6226 22.9296 33.6157 23.0152H59.9134C60.6699 23.0152 61.286 22.3991 61.286 21.6426V21.5707H66.6941V23.2651C66.5948 23.2445 66.4955 23.2308 66.3929 23.2308C65.6159 23.2308 64.9861 23.8606 64.9861 24.6376C64.9861 25.4146 65.6159 26.0444 66.3929 26.0444C67.1698 26.0444 67.7996 25.4146 67.7996 24.6376C67.7996 24.5965 67.7894 24.5555 67.786 24.5144L67.7996 24.5041V21.5707H70.1854C70.6338 21.5707 71 21.2045 71 20.7561V20.65C71 20.2016 70.6338 19.8354 70.1854 19.8354H70.1922ZM18.2266 12.2401C18.2266 12.4044 18.0931 12.5413 17.9254 12.5413H7.68428C7.51998 12.5413 7.38307 12.4078 7.38307 12.2401V6.97575C7.38307 6.81146 7.51656 6.67454 7.68428 6.67454H17.9254C18.0897 6.67454 18.2266 6.80803 18.2266 6.97575V12.2401ZM35.5667 12.2401C35.5667 12.4044 35.4298 12.5413 35.2655 12.5413H25.0244C24.8601 12.5413 24.7232 12.4078 24.7232 12.2401V6.97575C24.7232 6.81146 24.8601 6.67454 25.0244 6.67454H35.2655C35.4298 6.67454 35.5667 6.80803 35.5667 6.97575V12.2401ZM41.543 15.3686C41.543 15.6047 41.389 15.7964 41.2007 15.7964C41.0125 15.7964 40.8585 15.6047 40.8585 15.3686V13.794C40.8585 13.5579 41.0125 13.3662 41.2007 13.3662C41.389 13.3662 41.543 13.5579 41.543 13.794V15.3686ZM44.9727 10.7135C44.9727 11.0592 44.692 11.3399 44.3463 11.3399H41.4848C41.1391 11.3399 40.8585 11.0592 40.8585 10.7135V7.30092C40.8585 6.95521 41.1391 6.67454 41.4848 6.67454H44.3463C44.692 6.67454 44.9727 6.95521 44.9727 7.30092V10.7135Z" fill="#999999"/>
</svg>
