<svg xmlns="http://www.w3.org/2000/svg" version="1.1" viewBox="0 0 360 82.4544" class="w-40">
  <path d="M206.588922,0C185.440822,0,168.014511,15.923931,165.639903,36.435407c-.042288.365347.361894.616774.674309.422594l3.95653-2.459329c.1027-.063864.173612-.167714.197057-.286236,3.324941-16.908641,18.252656-29.705551,36.121122-29.705551,5.086228,0,9.933111,1.038792,14.343016,2.912128-2.377054,1.907282-3.902016,4.830629-3.902016,8.116447,0,5.755503,4.665936,10.421294,10.421438,10.421294,4.061532,0,7.577057-2.324985,9.295912-5.715516,3.377729,4.819698,5.633529,10.480843,6.380475,16.60198.013808.113344.073645.219208.163111.290551,1.605943,1.281877,2.834025,2.263998,3.778028,3.020582.29314.23503.729686.01726.716022-.358442C246.979133,17.636457,228.845143,0,206.588922,0Z" fill="#e6622d"/>
  <path d="M221.906112,34.039653l-18.334389-14.678883c-.777181-.621954-1.871967-.694684-2.724668-.180865l-17.44663,10.51479c-.279234.168308-.516958.387718-.689103.630151l-3.554173,4.099211c-.147902.206504-.334348.375684-.561607.507888l-12.911563,8.025928c-.223422.138658-.352662.387544-.337662.64986.34925,6.045332,1.982981,11.806384,4.856754,17.127372.088549.163955.288651.232682.458862.15685.746182-.332438,2.687797-1.191154,3.565804-1.519623,3.257497-1.218095,6.314769-1.70174,9.551337-2.213466,6.844459-1.082402,13.922108-2.20178,22.670626-10.934252,6.273783-6.262097,12.412221-9.840687,14.723009-11.188196.113019-.065928.405683-.247142.699916-.430101.203713-.126798.220806-.416845.033487-.566665Z"/>
  <path d="M231.186917,33.598622c-.769982-.607904-1.827889-.697684-2.687143-.22429-3.561337,1.962068-11.521277,6.736074-15.904067,12.36159-8.064378,10.35139-14.039232,16.021741-26.182546,20.249404l-.347367.128303c-1.866144.687542-3.473237,1.279576-5.117585,2.089379l-.105001.051494c-.075371.036535-.147289.071343-.216619.106727-.694119.346304-1.910821,1.13074-2.813832,1.752743-.198834.136959-.223848.418373-.055395.591336.279171.286644.679278.680548.903547.886218,7.632435,7.00516,17.528579,10.862875,27.865441,10.862875,10.463583,0,20.449913-3.941715,28.119314-11.099343,4.826602-4.504694,8.542636-10.151743,10.746367-16.330703.333702-.936093.63648-1.894336.900133-2.848552.443882-1.606662.793118-3.262804,1.037498-4.917507.084576-.521266-.17879-.862448-.417847-1.101218-.209454-.209454-11.816298-9.472595-15.724899-12.558455Z"/>
  <path d="M17.525106,58.207283l-.978123,5.71272s-5.340673.144018-7.326924,0c-1.464185-.114014-3.80448-.336042-5.814733-1.764222-1.878237-1.338169-2.61633-2.388301-3.150397-3.792478-.31804-.846107-.312039-3.084389-.102013-4.398555.144018-.912115,7.842989-44.26158,7.842989-44.26158h7.842989l-7.842989,45.629752s-.294037,1.386175.71409,2.160272c1.002126.780098,2.364298.71409,3.33042.71409h5.484691Z"/>
  <path d="M43.640398,20.762563c2.202278,2.400303,1.782225,6.282792,1.782225,6.282792l-6.060764,36.874649h-6.768853l2.3763-14.983889h-6.078766l-2.364298,14.983889h-6.768853s4.632584-27.753499,5.346674-33.226189c.71409-5.47269,1.074135-7.074892,3.564449-9.571207,2.496315-2.496315,5.844737-3.216405,8.431063-3.216405,2.370299,0,4.326545.432054,6.540825,2.85636ZM38.647769,25.527164c.354045-2.130269-1.536194-2.562323-2.550322-2.628331-1.038131-.072009-2.364298.426054-3.150397,2.400303-.7921,1.974249-3.222406,18.08628-3.222406,18.08628h6.078766s2.3823-15.025894,2.844359-17.858251Z"/>
  <path d="M92.162515,13.267618c2.526318,2.760348,2.316292,5.364676,2.046258,7.21891-1.602202,10.927378-8.053015,43.433475-8.053015,43.433475h-7.77098l8.047014-45.179696c.402051-2.448309-1.770223-2.940371-2.928369-3.018381-1.194151-.07801-3.678464-.198025-4.350548,4.764601l-8.047014,43.433475h-7.77698l8.047014-45.179696c.408051-2.448309-1.764222-2.940371-2.928369-3.018381-1.194151-.07801-2.712342.492062-3.618456,2.760348l-8.125024,45.437728h-8.113023s4.632584-26.169299,6.906871-40.007044c1.026129-6.252788.960121-7.06289,3.822482-9.925251,2.868362-2.868362,7.302921-3.996504,10.273295-3.996504,2.454309,0,4.51857.402051,6.762853,2.514317,2.640333-1.920242,5.778728-2.514317,8.293045-2.514317,2.724343,0,4.968626.492062,7.512947,3.276413Z"/>
  <polygon points="117.851754 17.906203 116.651602 23.858953 106.090271 23.858953 102.879866 43.229395 113.21917 43.229395 112.499079 48.936115 101.811732 48.936115 100.383552 57.853239 110.722855 57.853239 110.008765 63.920004 92.186518 63.920004 100.029507 17.906203 117.851754 17.906203"/>
  <path d="M125.694742,18.266248h7.128899s-6.054763,7.128899-7.128899,9.271169-2.802353,4.182527-2.802353,7.182906c0,3.006379,1.374173,7.800983,1.728218,9.583208.360045,1.776224,2.69434,7.872993,1.296163,11.773484-.672085,1.866235-4.854612,7.842989-4.854612,7.842989h-7.206909s5.454688-6.462815,5.778728-9.685221c.348044-3.504442-1.194151-7.951002-1.90224-10.021263-.71409-2.06426-1.716216-6.408808-1.512191-9.289171.312039-4.482565,2.910367-7.969005,4.44056-10.39331,1.488188-2.358297,5.034635-6.26479,5.034635-6.26479Z"/>
  <path d="M152.980182,20.762563c2.202278,2.400303,1.782225,6.282792,1.782225,6.282792l-6.060764,36.874649h-6.768853l2.3763-14.983889h-6.078766l-2.364298,14.983889h-6.768853s4.632584-27.753499,5.346674-33.226189c.71409-5.47269,1.074135-7.074892,3.564449-9.571207,2.496315-2.496315,5.844737-3.216405,8.431063-3.216405,2.370299,0,4.326545.432054,6.540825,2.85636ZM147.987553,25.527164c.354045-2.130269-1.536194-2.562323-2.550322-2.628331-1.038131-.072009-2.364298.426054-3.150397,2.400303-.7921,1.974249-3.222406,18.08628-3.222406,18.08628h6.078766s2.3823-15.025894,2.844359-17.858251Z"/>
  <path d="M278.044443,35.68923l-5.338832-6.968457h-5.652838v-5.567525h8.196641c1.915687,0,3.077697-1.364969,3.077697-3.484199,0-2.155192-1.16201-3.484258-3.077697-3.484258h-10.991669v19.504439h-5.778503V9.575602h16.770172c5.495835,0,8.761977,3.843407,8.761977,9.842007,0,4.274422-1.758684,7.148032-4.553712,8.441135l6.814847,7.830486h-8.228083Z"/>
  <path d="M301.08775,35.760847V9.575602h18.622027v6.627314h-13.515532v12.894555h13.571011v6.663376h-18.677507ZM308.664228,24.955392v-5.006532h10.26847v5.006532h-10.26847Z"/>
  <path d="M347.477062,35.662669c-6.327262,0-10.975248-5.741314-10.975248-13.312651,0-7.679056,4.647985-12.774416,10.975248-12.774416h12.204633v6.602466h-12.204633c-3.118672,0-5.427678,2.763028-5.427678,6.494867s2.248961,6.351342,5.427678,6.351342h12.204633v6.638392h-12.204633Z"/>
  <path d="M258.22445,43.450267h6.383574l7.852326,17.003854,7.824094-17.003854h5.988082l-11.524255,24.168972c-.621446,1.283303-1.384055,2.103168-2.485643,2.103168-1.129821,0-1.892477-.819865-2.513876-2.103168l-11.524302-24.168972Z"/>
  <path d="M309.429695,52.65859l-7.755215,17.005911h-5.8164l11.300451-24.222654c.609329-1.286153,1.357171-2.107958,2.465045-2.107958,1.080191,0,1.827986.821805,2.437361,2.107958l11.300405,24.222654h-6.148748l-7.782899-17.005911Z"/>
  <path d="M342.905751,53.914917v15.461248h-4.988049v-22.269887c0-2.376,1.020197-3.865401,2.607338-3.865401.765242,0,1.303763.319242,2.012255,1.134832l12.470312,14.361979v-15.461248h4.988144v22.589011c0,2.375882-1.04862,3.865282-2.607432,3.865282-.765242,0-1.331997-.319124-2.012255-1.134714l-12.470312-14.681102Z"/>
</svg>
